<svg width="214" height="213" fill="none" xmlns="http://www.w3.org/2000/svg"><path fill-rule="evenodd" clip-rule="evenodd" d="M13.29 124.524h8.087l2.127-4.895 8.299.213 2.34 4.893h8.087L27.76 84.518l-14.47 40.006zm12.344-12.341s1.703-7.45 1.912-6.81c.214.638 1.916 6.594 1.916 6.594l-3.828.216zm21.704-1.49c0-10.429 11.493-5.319 11.493-5.319l4.68-5.322c-4.043-3.832-10.214-3.617-10.214-3.617-3.192 0-12.342 1.064-13.62 15.108 5.11 22.345 24.048 10.43 24.048 10.43l-4.682-5.32c0-.002-11.705 4.465-11.705-5.96z" fill="#153053" fill-opacity=".6"/><path fill-rule="evenodd" clip-rule="evenodd" d="M146.931 94.307l-3.406-6.811h-37.452l-7.66 20.218-8.726-20.43H51.596l-4.043 7.023h17.235v30.217h8.086V94.307H83.94l14.26 36.174 14.044-36.174h34.687z" fill="#153053" fill-opacity=".6"/><path fill-rule="evenodd" clip-rule="evenodd" d="M76.833 124.736h7.32V96.859H76.92l-.086 27.877zm35.324 0h7.323V96.859h-7.236l-.087 27.877zm25.965 0h7.32V96.859h-7.234l-.086 27.877zm-7.153-21.919h4.683l.213-5.745-8.299-.214s-5.745 0-5.745 5.32c0 5.321 6.807 12.769 6.807 12.769s1.703 1.49.852 2.765c-.852 1.279-7.875.43-7.875.43v6.381h10.215s5.534.639 5.534-5.319c0-5.959-7.663-13.831-7.663-13.831-1.165-1.256-.546-2.556 1.278-2.556zm30.644-6.809s-15.321-.425-14.895 14.898c.425 15.321 13.62 14.682 14.895 14.682 1.278 0 14.046-1.277 13.833-15.533-.211-14.258-13.833-14.047-13.833-14.047zm.212 21.921s-7.445 1.065-7.445-7.236c0-8.299 7.022-7.235 7.022-7.235s6.171.424 6.382 5.959c.853 8.085-5.959 8.512-5.959 8.512zm28.517-21.07l-.639 9.365-12.98-10.216.213 28.516h7.661v-10.639l12.556 10.639V96.859h-6.811zm16.629 22.11a3.49 3.49 0 0 1 1.358 1.334 3.65 3.65 0 0 1 .023 3.661 3.507 3.507 0 0 1-1.338 1.356 3.612 3.612 0 0 1-1.839.496 3.662 3.662 0 0 1-1.818-.49 3.487 3.487 0 0 1-1.343-1.324 3.595 3.595 0 0 1-.496-1.839c0-.637.161-1.25.492-1.837a3.468 3.468 0 0 1 1.329-1.336 3.653 3.653 0 0 1 1.836-.489 3.737 3.737 0 0 1 1.796.468zm-3.954-.638a4.13 4.13 0 0 0-1.632 1.605 4.385 4.385 0 0 0-.602 2.226c0 .756.192 1.483.58 2.182a4.201 4.201 0 0 0 1.606 1.615c.67.388 1.431.592 2.205.589.761 0 1.49-.195 2.188-.583a4.135 4.135 0 0 0 1.606-1.594 4.38 4.38 0 0 0 .591-2.208 4.5 4.5 0 0 0-.587-2.206 4.178 4.178 0 0 0-1.596-1.597 4.356 4.356 0 0 0-2.202-.591c-.737-.002-1.455.188-2.157.562zm1.013 6.247v-2.009h.444c.263 0 .464.055.609.162.205.158.468.525.792 1.103l.419.744h.926l-.576-.926c-.272-.434-.505-.744-.699-.934a1.246 1.246 0 0 0-.402-.254c.378-.027.695-.155.947-.394a1.235 1.235 0 0 0 .177-1.628c-.177-.258-.446-.432-.805-.518-.209-.045-.537-.068-.987-.068h-1.619v4.721h.774v.001zm0-4.069h.856c.367 0 .62.027.76.081.288.115.432.32.432.616 0 .475-.378.713-1.135.713h-.912v-1.41h-.001z" fill="#153053" fill-opacity=".6"/></svg>