<svg width="131" height="78" fill="none" xmlns="http://www.w3.org/2000/svg"><g clip-path="url(#clip0)" fill="#153053" fill-opacity=".6"><path d="M36.868 28.33c0 1.604.173 2.905.475 3.86.346.954.779 1.995 1.384 3.123.216.347.303.694.303.997 0 .434-.26.868-.822 1.302l-2.724 1.822c-.389.26-.778.39-1.124.39-.432 0-.864-.217-1.297-.607a13.41 13.41 0 0 1-1.556-2.039 33.598 33.598 0 0 1-1.34-2.56c-3.372 3.991-7.609 5.987-12.71 5.987-3.632 0-6.529-1.041-8.647-3.123-2.118-2.082-3.2-4.859-3.2-8.329 0-3.687 1.298-6.68 3.935-8.935 2.637-2.256 6.139-3.384 10.592-3.384 1.47 0 2.983.13 4.583.347 1.6.217 3.242.564 4.971.954V14.97c0-3.297-.691-5.596-2.032-6.94-1.383-1.345-3.718-1.996-7.046-1.996-1.514 0-3.07.174-4.67.564-1.6.39-3.156.868-4.669 1.475-.691.304-1.21.477-1.513.564-.302.087-.519.13-.692.13-.605 0-.907-.434-.907-1.345V5.296c0-.694.086-1.215.302-1.518.216-.304.605-.608 1.21-.911 1.514-.781 3.33-1.432 5.448-1.952C17.24.35 19.488.09 21.866.09c5.145 0 8.906 1.17 11.327 3.513 2.378 2.343 3.589 5.9 3.589 10.671v14.054h.086zm-17.553 6.592c1.427 0 2.897-.26 4.453-.78 1.557-.52 2.94-1.475 4.108-2.777.691-.824 1.21-1.735 1.47-2.776.259-1.04.432-2.299.432-3.773v-1.822a36.003 36.003 0 0 0-3.978-.738 32.47 32.47 0 0 0-4.063-.26c-2.897 0-5.015.564-6.442 1.735-1.427 1.171-2.118 2.82-2.118 4.988 0 2.04.518 3.557 1.6 4.599 1.037 1.084 2.55 1.604 4.539 1.604zm34.716 4.685c-.778 0-1.297-.13-1.643-.434-.346-.26-.648-.867-.907-1.691L41.32 3.952c-.26-.868-.39-1.432-.39-1.736 0-.694.347-1.084 1.038-1.084h4.237c.822 0 1.384.13 1.686.433.346.26.605.868.865 1.692l7.263 28.716 6.744-28.716c.216-.867.476-1.431.822-1.692.346-.26.95-.433 1.729-.433h3.459c.82 0 1.383.13 1.729.433.346.26.648.868.821 1.692l6.83 29.063 7.48-29.063c.26-.867.562-1.431.865-1.692.346-.26.908-.433 1.686-.433h4.02c.692 0 1.081.347 1.081 1.084 0 .217-.043.434-.086.694-.043.26-.13.607-.303 1.085l-10.419 33.53c-.26.868-.562 1.431-.908 1.692-.346.26-.908.434-1.642.434H76.21c-.822 0-1.384-.13-1.73-.434-.346-.304-.648-.868-.821-1.735L66.958 9.503 60.3 37.438c-.216.868-.476 1.432-.822 1.735-.345.304-.95.434-1.729.434h-3.718zm55.554 1.171a28.55 28.55 0 0 1-6.658-.78c-2.161-.521-3.848-1.085-4.972-1.735-.691-.39-1.167-.825-1.34-1.215a3.071 3.071 0 0 1-.26-1.215v-2.212c0-.91.347-1.345.995-1.345.26 0 .519.044.778.13.26.087.649.26 1.081.434 1.47.651 3.07 1.171 4.756 1.518a25.8 25.8 0 0 0 5.144.521c2.724 0 4.842-.477 6.312-1.431 1.47-.955 2.248-2.343 2.248-4.121 0-1.215-.389-2.212-1.167-3.037-.778-.824-2.248-1.561-4.366-2.255l-6.269-1.952c-3.156-.998-5.491-2.473-6.917-4.425-1.427-1.908-2.162-4.034-2.162-6.29 0-1.821.39-3.426 1.167-4.814a11.144 11.144 0 0 1 3.113-3.557c1.297-.998 2.767-1.735 4.496-2.256 1.73-.52 3.545-.737 5.448-.737.951 0 1.945.043 2.896.173.995.13 1.902.304 2.81.478a32.81 32.81 0 0 1 2.465.694c.778.26 1.383.52 1.815.78.606.347 1.038.694 1.297 1.085.26.347.389.824.389 1.431v2.039c0 .91-.345 1.388-.994 1.388-.346 0-.908-.173-1.643-.52-2.464-1.128-5.231-1.692-8.3-1.692-2.465 0-4.41.39-5.75 1.214-1.341.825-2.032 2.082-2.032 3.86 0 1.216.432 2.257 1.297 3.08.864.825 2.464 1.649 4.755 2.386l6.139 1.952c3.113.998 5.361 2.386 6.701 4.165 1.341 1.778 1.989 3.817 1.989 6.072 0 1.866-.389 3.557-1.124 5.032-.778 1.475-1.816 2.776-3.156 3.817-1.34 1.085-2.94 1.865-4.799 2.43-1.945.607-3.977.91-6.182.91zm8.171 21.082C103.532 72.4 82.867 77.996 65.099 77.996c-24.902 0-47.34-9.24-64.287-24.595-1.34-1.214-.13-2.863 1.47-1.909 18.33 10.671 40.941 17.134 64.33 17.134 15.78 0 33.116-3.296 49.069-10.063 2.377-1.084 4.409 1.562 2.075 3.297z"/><path d="M123.679 55.093c-1.816-2.342-12.019-1.128-16.645-.564-1.383.174-1.599-1.04-.346-1.952 8.128-5.726 21.487-4.077 23.043-2.169 1.557 1.952-.432 15.356-8.041 21.776-1.167.997-2.291.477-1.773-.825 1.73-4.294 5.577-13.967 3.762-16.266z"/></g><defs><clipPath id="clip0"><path fill="#fff" d="M.25 0h130v78H.25z"/></clipPath></defs></svg>