<svg width="191" height="100" viewBox="0 0 191 100" fill="none" xmlns="http://www.w3.org/2000/svg">
<g clip-path="url(#clip0)">
<path d="M41.6363 0.827011C41.1331 1.14863 40.5156 1.49322 40.264 1.63105C40.0124 1.74592 39.6464 1.95267 39.4635 2.06753C39.2805 2.1824 38.2513 2.80266 37.1763 3.42292C36.1013 4.06616 34.8663 4.77831 34.4317 5.05398C33.9971 5.30668 33.4254 5.6283 33.1738 5.74316C32.8993 5.85802 31.7786 6.50126 30.6579 7.19044C29.5143 7.87962 28.4393 8.49988 28.2563 8.59177C28.0734 8.68366 27.6159 8.95933 27.2271 9.21203C26.8612 9.46473 26.3809 9.7404 26.1979 9.8323C26.0149 9.90121 24.6198 10.7282 23.1102 11.6242C21.6007 12.5201 20.2055 13.3241 20.0225 13.416C19.8396 13.5079 19.3821 13.7836 18.9933 14.0363C18.6274 14.289 18.1013 14.5876 17.8497 14.7025C17.4152 14.8863 13.5727 17.1606 12.7036 17.7119C12.5206 17.8498 12.1547 18.0335 11.9031 18.1484C11.6286 18.2633 10.4622 18.9295 9.3186 19.6416C8.15215 20.3538 7.14579 20.9281 7.10005 20.9281C7.05431 20.9281 6.55113 21.2267 6.00221 21.6173C5.43042 21.9848 4.92724 22.3064 4.83575 22.3064C4.46981 22.3064 0.787467 24.6726 0.581622 25.0632C0.42152 25.3618 0.352905 35.4009 0.352905 55.5479V85.5961L0.83321 85.9867C1.10767 86.2164 1.42787 86.4002 1.58798 86.4002C2.15977 86.3772 3.39484 85.4813 5.31606 83.7124C6.4139 82.6786 7.60323 81.6219 7.9463 81.3692C8.88404 80.6111 9.93614 80.7489 11.6973 81.8286C12.5435 82.334 13.4584 82.8624 13.71 82.9773C13.9844 83.0921 14.5105 83.3908 14.8764 83.6435C15.2652 83.8962 15.7227 84.1718 15.9056 84.2637C16.0886 84.3556 17.5067 85.1826 19.0391 86.1015C20.5943 87.0204 21.9438 87.7785 22.081 87.7785C22.1954 87.7785 22.3097 87.8704 22.3097 87.9853C22.3097 88.1002 22.5842 88.3069 22.9501 88.4447C23.2932 88.5826 23.7278 88.7893 23.9107 88.9272C24.7341 89.4555 28.6223 91.7528 29.0569 91.9366C29.3084 92.0515 29.6744 92.2352 29.8574 92.3731C30.7265 92.9244 34.5689 95.1987 35.0035 95.3825C35.2551 95.4974 35.7811 95.796 36.1471 96.0487C36.5359 96.3014 36.9933 96.5771 37.1763 96.669C37.3593 96.7609 38.4114 97.3581 39.4863 98.0243C40.5613 98.6676 41.8193 99.3797 42.2767 99.6095C43.1001 100 43.1458 100 44.0835 99.5176C44.6325 99.2649 45.5931 98.7365 46.2106 98.346C46.851 97.9784 47.56 97.5649 47.8116 97.45C48.2462 97.2663 52.0886 94.992 52.9578 94.4406C53.1407 94.3028 53.5067 94.096 53.7583 93.9812C54.0099 93.8433 54.5359 93.5447 54.9019 93.292C55.2907 93.0393 55.7938 92.7406 56.0454 92.6258C56.48 92.442 60.3224 90.1677 61.1916 89.6164C61.3745 89.4785 61.7405 89.2947 61.9921 89.1799C62.4038 88.9961 67.3898 86.0556 68.2818 85.4813C68.4648 85.3434 68.8307 85.1597 69.0823 85.0448C69.3568 84.9299 70.4775 84.2867 71.5982 83.5975C72.7418 82.9083 73.8167 82.2881 73.9997 82.1962C74.1827 82.1043 74.663 81.8286 75.0289 81.5759C75.4177 81.3232 75.8752 81.0475 76.0582 80.9557C76.3555 80.8178 81.5702 77.7854 82.4622 77.2341C82.6452 77.0963 83.3313 76.7517 83.9489 76.4071C84.5893 76.0855 85.3212 75.4652 85.6185 75.0517L86.1217 74.3166V44.567C86.1217 19.3889 86.076 14.7484 85.8015 14.3809C85.3441 13.7376 83.8803 13.7836 83.0111 14.4728C82.2793 15.0471 79.1687 17.8268 78.5969 18.4241C78.3911 18.6308 77.865 18.9295 77.4076 19.0903C76.5842 19.3889 76.5156 19.3659 74.4343 18.1484C73.2449 17.4362 72.1242 16.816 71.9413 16.7241C71.7583 16.6322 71.3008 16.3565 70.912 16.1038C70.5461 15.8511 70.0658 15.5755 69.8828 15.4836C69.6998 15.3917 68.6249 14.7714 67.4813 14.0822C66.3606 13.3931 65.2399 12.7498 64.9654 12.635C64.7138 12.5201 64.3479 12.3363 64.1649 12.1985C63.2958 11.6471 59.4533 9.37284 59.0188 9.18906C58.7672 9.0742 58.264 8.77555 57.8752 8.52285C57.5092 8.27015 57.0289 7.99448 56.8459 7.90259C56.663 7.8107 55.2678 7.00666 53.7583 6.11072C52.2487 5.21479 50.8536 4.38777 50.6706 4.31886C50.4876 4.22696 50.0302 3.95129 49.6414 3.69859C49.2754 3.44589 48.7951 3.17022 48.6121 3.07833C48.4292 2.98644 47.2856 2.32023 46.0734 1.58511C43.6032 0.0918856 43.0086 -5.06639e-06 41.6363 0.827011ZM44.7697 12.8877C45.1128 13.1404 45.4558 13.3471 45.5016 13.3471C45.5702 13.3471 46.325 13.7606 47.1484 14.289C47.9946 14.7944 48.9095 15.3228 49.1611 15.4376C49.4355 15.5525 49.9616 15.8511 50.3275 16.1038C50.7163 16.3565 51.1738 16.6322 51.3567 16.7241C51.5397 16.816 52.6147 17.4362 53.7583 18.1254C54.879 18.8146 55.9997 19.4578 56.2742 19.5727C56.5257 19.6876 57.0518 19.9862 57.4177 20.2389C57.8066 20.4916 58.264 20.7673 58.447 20.8592C58.6299 20.9511 59.7049 21.5713 60.8485 22.2605C61.9692 22.9497 63.0899 23.5929 63.3644 23.7078C63.616 23.8226 64.0277 24.0524 64.2792 24.1902C67.0696 25.9821 67.9845 26.4415 68.8078 26.4415C69.5397 26.4415 69.9514 26.1429 72.8561 23.524C73.6109 22.8118 74.8002 22.8118 75.3949 23.501C75.8066 24.0064 75.8066 24.8564 75.8294 46.1291C75.8294 67.4937 75.8066 68.2747 75.3949 68.9639C74.9832 69.6301 74.5029 70.0207 73.4279 70.5261C73.1535 70.6409 72.0327 71.2842 70.912 71.9734C69.7684 72.6625 68.6935 73.2828 68.5105 73.3747C68.3275 73.4666 67.8701 73.7422 67.4813 73.9949C67.1153 74.2476 66.5893 74.5463 66.3148 74.6611C66.0632 74.776 65.1484 75.3044 64.3021 75.8098C63.4787 76.3382 62.7468 76.7517 62.6782 76.7517C62.6325 76.7517 62.1522 77.0273 61.6033 77.3719C59.9336 78.4516 59.7278 78.5895 59.2475 78.7962C58.973 78.9111 57.8523 79.5543 56.7316 80.2435C55.588 80.9327 54.513 81.5529 54.3301 81.6448C54.1471 81.7367 53.6897 82.0124 53.3008 82.2651C52.9349 82.5178 52.4088 82.8164 52.1573 82.9313C51.8828 83.0462 50.7621 83.6894 49.6414 84.3786C48.4978 85.0678 47.4228 85.688 47.2398 85.7799C47.0569 85.8718 46.5994 86.1475 46.2106 86.4002C45.8447 86.6529 45.25 86.9745 44.9069 87.1123C44.541 87.2502 44.2665 87.4569 44.2665 87.5718C44.2665 88.0312 42.4139 87.7785 41.4991 87.2042C40.9959 86.8826 40.3555 86.515 40.081 86.3772C39.8065 86.2623 39.2805 85.9637 38.8917 85.711C38.5257 85.4583 38.0454 85.1826 37.8625 85.0907C37.6795 84.9988 36.6045 84.3786 35.4609 83.6894C34.3402 83.0002 33.2195 82.357 32.945 82.2421C32.6935 82.1273 32.1903 81.8286 31.8015 81.5759C31.4355 81.3232 30.9552 81.0475 30.7722 80.9557C30.5893 80.8638 29.56 80.2665 28.4851 79.6232C27.4101 78.98 25.832 78.0611 24.94 77.5787C24.0708 77.0963 23.1788 76.5449 22.973 76.3841C22.79 76.2003 22.5384 76.0625 22.4698 76.0625C22.3783 76.0625 21.898 75.8098 21.3948 75.4882C19.6337 74.3855 17.9412 73.5355 17.4609 73.5355C16.9806 73.5355 15.3339 74.6841 13.9616 75.9936C13.2983 76.5909 12.2233 77.2111 11.8116 77.2111C11.7201 77.2111 11.3542 76.9584 11.0111 76.6368L10.4164 76.0855V53.9628C10.4164 33.4022 10.4393 31.7942 10.8053 31.2658C11.2398 30.6226 12.0403 29.9104 12.3148 29.8874C12.4063 29.8874 13.7328 29.1293 15.2881 28.2104C16.8205 27.2915 18.2386 26.4645 18.4215 26.3726C18.6045 26.2807 19.0848 26.005 19.4508 25.7523C19.8396 25.4997 20.3428 25.201 20.5943 25.0861C20.8688 24.9713 21.9895 24.328 23.1102 23.6389C24.2538 22.9497 25.3288 22.3294 25.5117 22.2375C25.6947 22.1456 26.175 21.87 26.541 21.6173C26.9298 21.3646 27.433 21.0659 27.7074 20.9511C27.959 20.8362 28.8739 20.3078 29.7201 19.8024C30.5435 19.2741 31.2983 18.8606 31.3898 18.8606C31.4584 18.8606 31.71 18.7227 31.8929 18.5389C32.0988 18.3781 32.9908 17.8268 33.8599 17.3444C34.7519 16.8619 36.3301 15.943 37.405 15.2998C38.48 14.6566 39.5092 14.0593 39.6922 13.9674C39.8752 13.8755 40.3555 13.5998 40.7214 13.3471C41.3618 12.9336 41.8193 12.6809 42.6655 12.3593C43.1687 12.1525 44.0607 12.3823 44.7697 12.8877ZM123.288 19.5497C121.367 19.8943 119.652 21.2727 118.851 23.1335C118.188 24.6037 118.188 27.3604 118.828 28.7847C119.331 29.9104 121.253 31.955 121.824 31.955C122.007 31.955 122.282 32.0698 122.419 32.2077C122.556 32.3455 123.288 32.5063 124.043 32.5752C125.781 32.736 127.542 32.2077 128.777 31.1739C129.578 30.5077 129.646 30.3469 129.372 30.0253C128.983 29.5658 128.526 29.7036 127.176 30.5996C126.353 31.1509 125.964 31.2658 124.798 31.2658C123.197 31.2658 122.236 30.8753 121.275 29.7955C120.155 28.578 119.743 27.5212 119.743 25.9361C119.743 24.0983 120.635 22.3983 122.099 21.4565C122.922 20.9051 123.288 20.8132 124.798 20.8132C126.147 20.8132 126.65 20.9051 126.993 21.2038C127.245 21.4335 127.565 21.6173 127.702 21.6173C127.862 21.6173 127.977 21.7092 127.977 21.824C127.977 22.1686 128.709 22.3294 129.029 22.0538C130.538 20.7903 126.353 18.9754 123.288 19.5497ZM136.211 19.5268C133.923 19.8713 131.842 21.7551 131.385 23.9145C131.27 24.351 131.133 25.0172 131.042 25.3848C130.859 26.1199 131.27 28.2793 131.819 29.382C132.803 31.4496 135.502 32.805 138.132 32.5752C139.893 32.4144 142.249 31.3117 142.478 30.5307C142.729 29.5658 142.638 26.0969 142.34 25.7983C142.157 25.6145 141.288 25.5226 139.962 25.5226C137.789 25.5226 137.194 25.7524 137.491 26.5104C137.583 26.8091 138.04 26.901 139.367 26.9469L141.128 27.0158L141.197 28.1415C141.311 29.8645 141.128 30.255 140.03 30.7834C139.298 31.128 138.612 31.2658 137.446 31.2658C136.096 31.2428 135.73 31.1509 134.953 30.6226C134.45 30.278 133.741 29.5199 133.352 28.9685C132.734 28.0266 132.666 27.751 132.666 26.0969C132.666 23.8686 133.26 22.6051 134.793 21.5024C135.707 20.8821 135.959 20.8132 137.537 20.8132C139.07 20.8362 139.436 20.9281 140.305 21.4794C141.265 22.0997 141.334 22.1227 141.631 21.7092C142.134 21.02 141.951 20.7213 140.671 20.0781C139.619 19.5497 137.697 19.32 136.211 19.5268ZM106.134 19.8484C106.066 20.0092 106.043 22.8578 106.066 26.2118L106.134 32.2996L109.268 32.3685C113.362 32.4374 114.666 32.1158 115.649 30.7374C116.267 29.8874 116.335 29.6347 116.244 28.6469C116.152 27.6821 116.015 27.4064 115.192 26.6483C114.688 26.1659 114.254 25.7064 114.254 25.6375C114.254 25.5686 114.574 25.0861 114.94 24.5578C116.175 22.8578 115.626 20.9051 113.682 20.0092C112.836 19.6186 112.173 19.5497 109.451 19.5497C107.072 19.5497 106.203 19.6187 106.134 19.8484ZM113.545 21.7321C114.368 22.674 114.414 23.0186 113.865 23.9375C113.225 25.0172 112.287 25.3159 109.748 25.247L107.507 25.178L107.438 23.0416L107.369 20.9281H112.836L113.545 21.7321ZM113.156 26.8321C114.894 27.5212 115.42 28.7618 114.483 29.9563C113.751 30.8753 112.15 31.2888 109.657 31.2198L107.507 31.1509L107.438 29.1064C107.392 27.9807 107.415 26.924 107.484 26.7402C107.667 26.2577 111.921 26.3267 113.156 26.8321ZM164.96 38.0887C164.594 38.1806 164.572 38.686 164.617 45.348L164.686 52.5155H166.973V38.0427L166.173 37.9968C165.738 37.9968 165.189 38.0198 164.96 38.0887ZM121.207 38.4792C121.138 38.663 121.115 39.0995 121.161 39.467C121.23 40.0873 121.275 40.1103 122.488 40.1103H123.746V38.2724L122.533 38.2035C121.641 38.1576 121.298 38.2265 121.207 38.4792ZM139.733 38.4792C139.664 38.663 139.641 39.0995 139.687 39.467C139.756 40.0873 139.802 40.1103 141.014 40.1103H142.272V38.2724L141.059 38.2035C140.167 38.1576 139.824 38.2265 139.733 38.4792ZM106.134 38.8697C106.066 39.0535 106.043 42.2008 106.066 45.8534L106.134 52.5155L109.748 52.5844C112.653 52.6304 113.522 52.5614 114.071 52.2858C114.46 52.102 114.917 51.9412 115.077 51.9412C115.603 51.9412 118.096 49.2993 118.256 48.5872C118.348 48.2196 118.508 47.6912 118.622 47.3926C118.943 46.5886 118.874 44.7048 118.485 43.3264C118.028 41.7873 116.678 40.2022 115.1 39.3981C113.979 38.8238 113.659 38.7779 110.091 38.663C106.958 38.5711 106.226 38.617 106.134 38.8697ZM113.819 41.4427C115.192 42.1548 116.312 44.0156 116.312 45.5318C116.312 46.8183 115.649 48.4034 114.78 49.2074C113.659 50.2412 112.493 50.5858 110.48 50.5169L108.65 50.448L108.582 45.9683C108.559 43.5102 108.582 41.3738 108.627 41.213C108.719 41.0062 109.336 40.9143 110.777 40.9143C112.47 40.9143 112.973 41.0062 113.819 41.4427ZM145.725 39.4211C145.657 39.6278 145.588 40.2022 145.588 40.6846C145.588 41.4197 145.451 41.6724 144.902 42.0629C143.987 42.7291 143.987 43.5562 144.879 44.0845L145.565 44.4751L145.634 47.9669C145.702 51.4128 145.702 51.4817 146.32 52.079C146.777 52.5614 147.212 52.7223 148.15 52.8141C148.813 52.8601 149.659 52.7912 150.002 52.6533C150.574 52.4236 150.643 52.3088 150.574 51.5507C150.505 50.6777 150.483 50.6777 149.499 50.6777C147.99 50.6547 147.852 50.3101 147.921 47.0021L147.99 44.2453L149.293 44.1764C150.528 44.1075 150.597 44.0845 150.734 43.4183C150.963 42.4305 150.551 42.0629 149.225 42.0629C147.99 42.0629 147.944 41.994 147.829 40.1103C147.761 39.2143 147.738 39.1914 146.823 39.1224C146.114 39.0765 145.84 39.1454 145.725 39.4211ZM128.892 42.2237C124.958 43.9008 124.958 49.7588 128.869 51.5047C130.31 52.1479 131.522 52.079 133.1 51.252C133.878 50.8385 134.541 50.6317 134.655 50.7466C134.976 51.0682 134.038 52.975 133.283 53.5263C132.345 54.1925 129.829 54.2155 128.549 53.5493L127.657 53.0898L127.131 53.5952C126.216 54.4452 126.513 54.9736 128.206 55.5479C131.476 56.6506 134.838 55.9844 136.142 53.9628L136.782 52.975V42.1778L135.936 42.1089C135.273 42.0629 135.021 42.1548 134.793 42.4994C134.45 43.0737 133.855 43.1197 133.466 42.6373C133.306 42.4535 132.986 42.2927 132.757 42.2927C132.528 42.2927 132.277 42.1778 132.208 42.0629C132.002 41.7183 129.807 41.8102 128.892 42.2237ZM133.031 44.2453C133.855 44.6818 134.61 45.8534 134.61 46.6804C134.61 48.4034 133.146 49.8736 131.43 49.8736C130.173 49.8736 128.777 48.7939 128.572 47.6912C128.389 46.7494 128.572 45.5778 128.983 45.0724C129.852 43.9697 131.751 43.5791 133.031 44.2453ZM155.309 42.0859C154.943 42.1778 154.348 42.3386 154.005 42.4075C153.502 42.4994 153.364 42.6602 153.364 43.1656C153.364 44.2453 153.547 44.3143 156.063 44.2913C158.396 44.2453 158.442 44.2453 158.991 44.8886C159.288 45.2332 159.54 45.7156 159.54 45.9453C159.54 46.3359 159.311 46.3588 157.092 46.3359C154.874 46.3129 154.531 46.3588 153.753 46.8413C152.381 47.7142 151.809 49.7128 152.541 51.1142C152.953 51.8952 153.776 52.6304 154.302 52.6304C154.531 52.6304 154.965 52.7452 155.286 52.8831C155.926 53.1817 157.596 52.8601 158.579 52.2398C159.059 51.9412 159.174 51.9412 159.54 52.2858C159.814 52.5385 160.249 52.6304 160.843 52.5844L161.713 52.5155V44.1535L160.843 43.2805C159.608 41.994 157.321 41.5116 155.309 42.0859ZM159.105 48.0358C160.066 48.5642 159.448 50.1493 158.007 50.8844C157.07 51.3669 156.315 51.3439 155.446 50.8385C154.851 50.5169 154.737 50.3101 154.737 49.598C154.737 48.3575 155.537 47.8061 157.298 47.8061C158.053 47.8061 158.854 47.921 159.105 48.0358ZM121.619 42.2467C121.413 42.4075 121.344 43.6021 121.39 47.4845L121.458 52.5155H123.746L123.814 47.8061C123.837 45.2102 123.814 42.867 123.746 42.5683C123.654 42.1548 123.471 42.0629 122.762 42.0629C122.305 42.0629 121.779 42.1548 121.619 42.2467ZM140.145 42.2467C139.939 42.4075 139.87 43.6021 139.916 47.4845L139.984 52.5155H142.272L142.34 47.8061C142.363 45.2102 142.34 42.867 142.272 42.5683C142.18 42.1548 141.997 42.0629 141.288 42.0629C140.831 42.0629 140.305 42.1548 140.145 42.2467ZM104.991 59.0627C104.922 59.1776 104.945 59.4533 105.059 59.683C105.425 60.4181 105.951 61.6357 107.049 64.3464C107.621 65.7937 108.261 67.2869 108.422 67.6775C108.582 68.045 108.948 68.9869 109.245 69.745C109.542 70.5031 109.862 71.2152 109.954 71.3301C110.045 71.4679 110.137 71.7436 110.137 71.9734C110.137 73.099 112.195 73.7882 112.904 72.8923C113.087 72.6855 113.476 71.8815 113.774 71.1234C114.071 70.3653 114.437 69.4234 114.597 69.0558C114.757 68.6653 115.397 67.1721 115.969 65.7248C116.998 63.2208 117.296 62.5086 117.89 61.1302C118.76 59.0857 118.691 58.833 117.296 58.833C116.472 58.833 115.626 59.4992 115.626 60.1654C115.626 60.3951 115.535 60.6708 115.443 60.7857C115.352 60.9235 115.031 61.6357 114.734 62.3937C114.437 63.1518 114.071 64.0937 113.888 64.5072C113.705 64.8978 113.568 65.3342 113.568 65.4491C113.568 65.5869 113.408 65.9775 113.225 66.345C113.042 66.6896 112.721 67.4707 112.516 68.068C112.31 68.6883 112.012 69.1707 111.852 69.1707C111.601 69.1707 111.189 68.3437 110.434 66.2991C110.251 65.7937 109.954 65.0816 109.771 64.737C109.588 64.3694 109.451 63.9789 109.451 63.841C109.451 63.7262 109.291 63.2437 109.085 62.7843C108.879 62.3019 108.582 61.5897 108.399 61.1762C108.216 60.7627 108.078 60.2803 108.078 60.0965C108.078 59.4073 107.209 58.833 106.157 58.833C105.585 58.833 105.082 58.9249 104.991 59.0627ZM143.918 59.66C143.827 59.7519 143.758 60.3722 143.758 61.0384C143.758 62.187 143.735 62.2559 143.141 62.3248C142.66 62.3708 142.478 62.5316 142.432 62.9451C142.295 63.9329 142.569 64.5761 143.164 64.5761H143.735L143.804 68.1599L143.873 71.7436L144.719 72.5247C145.497 73.2368 145.702 73.3058 146.96 73.3058C148.493 73.3058 149.248 72.8233 149.248 71.8585C149.248 71.0085 148.927 70.6869 148.378 70.9855C147.692 71.3531 147.349 71.3071 146.777 70.7788C146.32 70.3423 146.274 70.0666 146.274 67.7923C146.274 66.4369 146.343 65.1505 146.411 64.9437C146.526 64.668 146.869 64.5761 147.784 64.5761C148.882 64.5761 149.019 64.5302 149.156 64.0248C149.225 63.7262 149.248 63.2208 149.202 62.9451C149.133 62.4397 148.996 62.3708 147.761 62.2789L146.389 62.164L146.274 60.9005L146.16 59.637L145.131 59.5681C144.559 59.5222 144.01 59.5681 143.918 59.66ZM121.298 62.9681C120.704 63.3356 119.926 64.0937 119.583 64.5991C118.988 65.4951 118.943 65.7478 118.943 67.7923C118.943 69.8828 118.988 70.0896 119.629 71.0085C120.704 72.5706 121.824 73.1679 123.883 73.2598C125.255 73.3287 125.827 73.2598 126.627 72.8923C128.023 72.249 128.594 71.6058 128.206 71.1234C127.565 70.3653 127.085 70.2734 126.284 70.7558C125.735 71.1004 125.141 71.2382 124.134 71.2382C122.854 71.2382 122.716 71.1923 122.03 70.4112C120.772 68.9639 121.001 68.8261 124.775 68.7801C128.937 68.7112 129.12 68.6653 129.12 67.8153C129.12 67.4707 129.029 66.8734 128.915 66.5059C128.8 66.1383 128.64 65.5869 128.572 65.2653C128.411 64.5072 127.153 63.1289 126.216 62.6464C125.758 62.4167 124.912 62.2789 123.929 62.2789C122.602 62.2789 122.213 62.3937 121.298 62.9681ZM125.918 65.1964C126.307 65.6788 126.582 66.2761 126.559 66.5288C126.49 66.9423 126.284 66.9883 123.929 67.0572C121.436 67.1261 121.344 67.1031 121.344 66.6437C121.344 65.2883 122.442 64.3694 124.02 64.3464C125.118 64.3464 125.255 64.4153 125.918 65.1964ZM131.499 62.5775C131.453 62.7383 131.43 65.1964 131.453 68.022L131.522 73.1909L132.071 73.2598C132.345 73.3058 132.849 73.2828 133.146 73.2139C133.695 73.076 133.695 73.0531 133.695 69.722C133.695 66.1842 133.809 65.7248 134.815 64.8748C135.593 64.2086 136.622 64.2086 137.469 64.8978L138.155 65.4491L138.269 69.3315L138.383 73.1909H140.899L140.876 69.1707C140.876 64.5761 140.671 63.841 139.253 62.8532C138.086 62.0721 136.439 62.0721 134.907 62.8532C133.923 63.3586 133.809 63.3586 133.718 63.014C133.672 62.8073 133.535 62.5546 133.375 62.4627C132.963 62.164 131.636 62.2559 131.499 62.5775ZM151.375 62.4167C151.032 62.5775 150.963 69.4234 151.283 70.8247C151.649 72.3869 152.93 73.3058 154.76 73.3058C155.835 73.3058 156.201 73.1909 157.001 72.6166C157.756 72.0423 157.962 71.9734 158.053 72.272C158.122 72.4558 158.213 72.7774 158.282 72.9612C158.35 73.1909 158.671 73.3058 159.174 73.3058C160.752 73.3058 160.683 73.5814 160.683 67.7693V62.5086L160.134 62.3708C159.837 62.3019 159.288 62.2789 158.945 62.3248L158.282 62.3937L158.213 66.0005L158.145 69.6301L157.344 70.4342C156.086 71.6977 154.782 71.4679 153.753 69.8139C153.456 69.3315 153.364 68.4815 153.319 65.7937L153.25 62.3937L152.45 62.3478C152.015 62.3248 151.512 62.3478 151.375 62.4167ZM163.725 62.4167C163.497 62.5086 163.428 63.8181 163.428 67.8153V73.076L163.977 73.2139C164.274 73.2828 164.777 73.3058 165.052 73.2598C165.578 73.1909 165.601 73.099 165.738 70.4342C165.921 66.5748 166.447 65.564 168.666 64.9207C169.466 64.691 169.489 64.6451 169.489 63.5424C169.489 62.4167 169.466 62.3937 168.757 62.3248C168.185 62.2789 167.842 62.4397 167.133 63.06C166.63 63.5194 166.127 63.887 165.99 63.887C165.852 63.887 165.715 63.5424 165.669 63.1289C165.601 62.4627 165.532 62.3937 164.8 62.3478C164.366 62.3248 163.863 62.3478 163.725 62.4167ZM173.537 62.7383C171.685 63.7721 170.678 65.564 170.678 67.7923C170.678 71.1463 172.828 73.3058 176.167 73.3058C177.746 73.3058 179.278 72.7544 180.056 71.8815C180.399 71.4909 180.399 71.422 179.896 70.8936C179.255 70.2045 178.981 70.1815 178.226 70.7788C177.791 71.1234 177.311 71.2382 176.19 71.2382C174.841 71.2382 174.681 71.1923 173.995 70.4801C173.263 69.722 173.011 68.7112 173.56 68.7112C173.697 68.6883 175.39 68.6653 177.265 68.6423L180.696 68.5964L180.765 67.2869C180.856 65.4721 180.056 63.9099 178.569 62.9681C177.631 62.3708 177.288 62.2789 175.893 62.3019C174.772 62.3019 174.063 62.4397 173.537 62.7383ZM177.563 64.8518C178.112 65.4721 178.592 66.5977 178.386 66.8964C178.317 67.0113 177.151 67.1031 175.756 67.1031H173.263V66.4829C173.263 66.0923 173.537 65.5869 173.995 65.1045C174.635 64.4383 174.864 64.3464 175.893 64.3464C176.831 64.3464 177.174 64.4613 177.563 64.8518ZM184.561 62.6464C183.235 63.2897 182.8 63.9559 182.777 65.4032C182.777 66.6437 182.8 66.7356 183.669 67.4937C184.15 67.9072 184.836 68.3207 185.156 68.3896C185.728 68.5275 187.032 69.0328 187.649 69.3774C188.244 69.6761 188.495 70.2734 188.221 70.7099C187.809 71.3761 185.522 71.399 184.287 70.7558L183.281 70.2734L182.732 70.8247C182.091 71.445 182.16 71.9733 182.938 72.3409C184.927 73.2828 185.248 73.3517 186.871 73.2598C188.335 73.1909 188.655 73.099 189.433 72.4787C190.256 71.8125 190.302 71.6747 190.371 70.3193C190.439 68.9639 190.394 68.8261 189.73 68.1369C189.273 67.6545 188.45 67.195 187.489 66.8734C185.087 66.0464 184.424 65.4032 185.202 64.6221C185.613 64.2086 187.763 64.2775 188.587 64.737C189.273 65.1505 189.296 65.1505 189.73 64.5761C190.439 63.6802 190.302 63.3356 189.044 62.7843C187.672 62.187 185.613 62.1181 184.561 62.6464Z" fill="#153053" fill-opacity="0.6"/>
</g>
<defs>
<clipPath id="clip0">
<rect x="0.25" width="190.291" height="100" fill="white"/>
</clipPath>
</defs>
</svg>
