<svg width="191" height="100" fill="none" xmlns="http://www.w3.org/2000/svg"><g clip-path="url(#clip0)"><path d="M41.636.827a26.3 26.3 0 0 1-1.372.804 8.413 8.413 0 0 0-.8.437c-.183.114-1.213.735-2.288 1.355-1.075.643-2.31 1.355-2.744 1.631-.435.253-1.007.574-1.258.69-.275.114-1.395.757-2.516 1.446-1.144.69-2.219 1.31-2.402 1.402-.183.092-.64.367-1.029.62-.366.253-.846.528-1.03.62-.182.07-1.577.896-3.087 1.792-1.51.896-2.904 1.7-3.087 1.792-.183.092-.64.368-1.03.62a9.414 9.414 0 0 1-1.143.667c-.435.183-4.277 2.458-5.146 3.009-.183.138-.55.322-.8.436-.275.115-1.442.782-2.585 1.494-1.167.712-2.173 1.286-2.219 1.286-.046 0-.549.299-1.098.69-.572.367-1.075.688-1.166.688-.366 0-4.049 2.367-4.254 2.757-.16.299-.23 10.338-.23 30.485v30.048l.481.39c.275.23.595.414.755.414.572-.023 1.807-.919 3.728-2.688 1.098-1.033 2.287-2.09 2.63-2.343.938-.758 1.99-.62 3.751.46.847.505 1.761 1.033 2.013 1.148.274.115.8.414 1.166.666.39.253.847.529 1.03.62.183.093 1.6.92 3.133 1.838 1.555.92 2.905 1.677 3.042 1.677.114 0 .229.092.229.207 0 .115.274.322.64.46.343.138.778.344.96.482.824.528 4.712 2.826 5.147 3.01.251.115.617.298.8.436.87.551 4.712 2.826 5.147 3.01.251.114.777.413 1.143.666.389.252.846.528 1.03.62.182.092 1.234.69 2.31 1.355 1.074.644 2.332 1.356 2.79 1.585.823.391.869.391 1.806-.091a22.32 22.32 0 0 0 2.128-1.172c.64-.368 1.349-.781 1.6-.896.435-.184 4.278-2.458 5.147-3.01a5.36 5.36 0 0 1 .8-.459 15.02 15.02 0 0 0 1.144-.689c.389-.253.892-.551 1.143-.666.435-.184 4.277-2.458 5.147-3.01.182-.138.548-.321.8-.436.412-.184 5.398-3.124 6.29-3.699.183-.138.549-.321.8-.436.275-.115 1.396-.758 2.516-1.448 1.144-.689 2.219-1.309 2.402-1.4.183-.093.663-.368 1.029-.621a14.84 14.84 0 0 1 1.03-.62c.297-.138 5.511-3.17 6.403-3.722.183-.138.87-.482 1.487-.827.64-.322 1.372-.942 1.67-1.355l.503-.735v-29.75c0-25.178-.046-29.819-.32-30.186-.458-.643-1.922-.597-2.79.092-.733.574-3.843 3.354-4.415 3.951-.206.207-.732.506-1.19.666-.823.299-.891.276-2.973-.942a63.261 63.261 0 0 0-2.493-1.424 14.89 14.89 0 0 1-1.029-.62 10.869 10.869 0 0 0-1.03-.62 75.947 75.947 0 0 1-2.4-1.402c-1.121-.689-2.242-1.332-2.517-1.447-.251-.115-.617-.299-.8-.437-.87-.55-4.712-2.825-5.146-3.009-.252-.115-.755-.413-1.144-.666a10.882 10.882 0 0 0-1.03-.62c-.182-.092-1.577-.896-3.087-1.792-1.51-.896-2.904-1.723-3.087-1.792a14.89 14.89 0 0 1-1.03-.62 10.882 10.882 0 0 0-1.029-.62c-.183-.093-1.326-.759-2.539-1.494C43.603.092 43.01 0 41.636.827zm3.134 12.06c.343.253.686.46.732.46.068 0 .823.414 1.646.942.847.505 1.761 1.034 2.013 1.149.274.114.8.413 1.166.666.39.253.847.528 1.03.62.183.092 1.258.712 2.401 1.401 1.121.69 2.242 1.333 2.516 1.448.252.115.778.413 1.144.666.389.253.846.528 1.029.62.183.092 1.258.712 2.401 1.401 1.121.69 2.242 1.333 2.516 1.448.252.115.664.344.915.482 2.79 1.792 3.706 2.252 4.529 2.252.732 0 1.143-.3 4.048-2.918.755-.712 1.944-.712 2.539-.023.412.505.412 1.355.434 22.628 0 21.365-.022 22.146-.434 22.835-.412.666-.892 1.057-1.967 1.562-.275.115-1.395.758-2.516 1.447-1.144.69-2.219 1.31-2.402 1.402-.183.092-.64.367-1.029.62a8.059 8.059 0 0 1-1.166.666c-.252.115-1.167.643-2.013 1.149-.823.528-1.555.942-1.624.942-.045 0-.526.275-1.075.62-1.67 1.08-1.875 1.218-2.355 1.424-.275.115-1.396.758-2.516 1.447-1.144.69-2.219 1.31-2.402 1.402-.183.092-.64.367-1.03.62a9.422 9.422 0 0 1-1.143.666c-.274.115-1.395.758-2.516 1.448-1.143.689-2.218 1.309-2.401 1.4-.183.093-.64.368-1.03.621a8.06 8.06 0 0 1-1.303.712c-.366.138-.64.345-.64.46 0 .46-1.853.206-2.768-.368a20.268 20.268 0 0 0-1.418-.827c-.275-.115-.8-.413-1.19-.666a10.9 10.9 0 0 0-1.029-.62c-.183-.092-1.258-.712-2.401-1.402-1.12-.689-2.242-1.332-2.516-1.447-.252-.115-.755-.413-1.143-.666a10.86 10.86 0 0 0-1.03-.62c-.183-.092-1.212-.69-2.287-1.333a116.402 116.402 0 0 0-3.545-2.044c-.87-.483-1.761-1.034-1.967-1.195-.183-.184-.435-.322-.503-.322-.092 0-.572-.252-1.075-.574-1.761-1.103-3.454-1.953-3.934-1.953s-2.127 1.15-3.5 2.459c-.663.597-1.738 1.217-2.15 1.217-.09 0-.457-.253-.8-.574l-.595-.552V53.963c0-20.56.023-22.169.39-22.697.434-.643 1.234-1.356 1.509-1.379.091 0 1.418-.758 2.973-1.677 1.532-.919 2.95-1.745 3.134-1.837.183-.092.663-.368 1.029-.62.389-.253.892-.552 1.143-.667.275-.115 1.395-.758 2.516-1.447 1.144-.69 2.219-1.31 2.402-1.401a10.88 10.88 0 0 0 1.029-.62c.389-.253.892-.552 1.166-.667.252-.115 1.167-.643 2.013-1.149.824-.528 1.578-.941 1.67-.941.068 0 .32-.138.503-.322.206-.16 1.098-.712 1.967-1.195.892-.482 2.47-1.401 3.545-2.044a81.941 81.941 0 0 1 2.287-1.333c.183-.091.663-.367 1.03-.62a9.061 9.061 0 0 1 1.944-.988c.503-.207 1.395.023 2.104.529zm78.518 6.663c-1.921.344-3.636 1.723-4.437 3.584-.663 1.47-.663 4.226-.023 5.65.503 1.126 2.425 3.171 2.996 3.171.183 0 .458.115.595.253.137.138.869.298 1.624.367 1.738.161 3.499-.367 4.734-1.401.801-.666.869-.827.595-1.149-.389-.46-.846-.321-2.196.575-.823.55-1.212.666-2.378.666-1.601 0-2.562-.39-3.523-1.47-1.12-1.218-1.532-2.275-1.532-3.86 0-1.838.892-3.538 2.356-4.48.823-.55 1.189-.643 2.699-.643 1.349 0 1.852.092 2.195.39.252.23.572.414.709.414.16 0 .275.092.275.207 0 .345.732.505 1.052.23 1.509-1.264-2.676-3.079-5.741-2.504zm12.923-.023c-2.288.344-4.369 2.228-4.826 4.387-.115.437-.252 1.103-.343 1.47-.183.736.228 2.895.777 3.998.984 2.068 3.683 3.423 6.313 3.193 1.761-.16 4.117-1.263 4.346-2.044.251-.965.16-4.434-.138-4.733-.183-.183-1.052-.275-2.378-.275-2.173 0-2.768.23-2.471.987.092.3.549.391 1.876.437l1.761.069.069 1.126c.114 1.723-.069 2.113-1.167 2.641-.732.345-1.418.483-2.584.483-1.35-.023-1.716-.115-2.493-.643-.503-.345-1.212-1.103-1.601-1.655-.618-.941-.686-1.217-.686-2.871 0-2.228.594-3.492 2.127-4.595.914-.62 1.166-.689 2.744-.689 1.533.023 1.899.115 2.768.666.96.62 1.029.644 1.326.23.503-.689.32-.988-.96-1.63-1.052-.53-2.974-.759-4.46-.552zm-30.077.321c-.068.161-.091 3.01-.068 6.364l.068 6.088 3.134.069c4.094.068 5.398-.253 6.381-1.632.618-.85.686-1.102.595-2.09-.092-.965-.229-1.24-1.052-1.999-.504-.482-.938-.942-.938-1.01 0-.07.32-.552.686-1.08 1.235-1.7.686-3.653-1.258-4.549-.846-.39-1.509-.46-4.231-.46-2.379 0-3.248.07-3.317.3zm7.411 1.884c.823.942.869 1.287.32 2.206-.64 1.08-1.578 1.378-4.117 1.309l-2.241-.069-.069-2.136-.069-2.114h5.467l.709.804zm-.389 5.1c1.738.69 2.264 1.93 1.327 3.124-.732.92-2.333 1.333-4.826 1.264l-2.15-.07-.069-2.044c-.046-1.125-.023-2.182.046-2.366.183-.482 4.437-.413 5.672.092zM164.96 38.09c-.366.092-.388.597-.343 7.259l.069 7.168h2.287V38.043l-.8-.046c-.435 0-.984.023-1.213.092zm-43.753.39c-.069.184-.092.62-.046.988.069.62.114.643 1.327.643h1.258v-1.838l-1.213-.069c-.892-.045-1.235.023-1.326.276zm18.526 0c-.069.184-.092.62-.046.988.069.62.115.643 1.327.643h1.258v-1.838l-1.213-.069c-.892-.045-1.235.023-1.326.276zm-33.599.39c-.068.184-.091 3.332-.068 6.984l.068 6.663 3.614.068c2.905.046 3.774-.023 4.323-.298.389-.184.846-.345 1.006-.345.526 0 3.019-2.642 3.179-3.354.092-.367.252-.896.366-1.194.321-.804.252-2.688-.137-4.067-.457-1.539-1.807-3.124-3.385-3.928-1.121-.574-1.441-.62-5.009-.735-3.133-.092-3.865-.046-3.957.207zm7.685 2.574c1.373.712 2.493 2.573 2.493 4.089 0 1.286-.663 2.871-1.532 3.675-1.121 1.034-2.287 1.379-4.3 1.31l-1.83-.069-.068-4.48c-.023-2.458 0-4.594.045-4.755.092-.207.709-.299 2.15-.299 1.693 0 2.196.092 3.042.529zm31.906-2.022c-.068.207-.137.781-.137 1.264 0 .735-.137.987-.686 1.378-.915.666-.915 1.493-.023 2.021l.686.391.069 3.492c.068 3.446.068 3.515.686 4.112.457.482.892.643 1.83.735.663.046 1.509-.023 1.852-.16.572-.23.641-.345.572-1.103-.069-.873-.091-.873-1.075-.873-1.509-.023-1.647-.368-1.578-3.676l.069-2.757 1.303-.069c1.235-.069 1.304-.092 1.441-.758.229-.987-.183-1.355-1.509-1.355-1.235 0-1.281-.069-1.396-1.953-.068-.896-.091-.919-1.006-.988-.709-.045-.983.023-1.098.3zm-16.833 2.803c-3.934 1.677-3.934 7.535-.023 9.28 1.441.644 2.653.575 4.231-.252.778-.413 1.441-.62 1.555-.505.321.321-.617 2.228-1.372 2.78-.938.666-3.454.688-4.734.022l-.892-.46-.526.506c-.915.85-.618 1.379 1.075 1.953 3.27 1.103 6.632.436 7.936-1.585l.64-.988V42.178l-.846-.07c-.663-.045-.915.047-1.143.391-.343.575-.938.62-1.327.138-.16-.184-.48-.344-.709-.344-.229 0-.48-.115-.549-.23-.206-.345-2.401-.253-3.316.16zm4.139 2.021c.824.437 1.579 1.608 1.579 2.435 0 1.723-1.464 3.194-3.18 3.194-1.257 0-2.653-1.08-2.858-2.183-.183-.942 0-2.113.411-2.619.869-1.102 2.768-1.493 4.048-.827zm22.278-2.16c-.366.093-.961.254-1.304.322-.503.092-.641.253-.641.759 0 1.08.183 1.148 2.699 1.125 2.333-.046 2.379-.046 2.928.598.297.344.549.827.549 1.056 0 .39-.229.414-2.448.39-2.218-.022-2.561.024-3.339.506-1.372.873-1.944 2.872-1.212 4.273.412.781 1.235 1.516 1.761 1.516.229 0 .663.115.984.253.64.299 2.31-.023 3.293-.643.48-.299.595-.299.961.046.274.252.709.344 1.303.298l.87-.069v-8.361l-.87-.873c-1.235-1.287-3.522-1.77-5.534-1.195zm3.796 5.95c.961.53.343 2.114-1.098 2.85-.937.482-1.692.459-2.561-.046-.595-.322-.709-.529-.709-1.241 0-1.24.8-1.792 2.561-1.792.755 0 1.556.115 1.807.23zm-37.486-5.788c-.206.16-.275 1.355-.229 5.237l.068 5.032h2.288l.068-4.71c.023-2.596 0-4.939-.068-5.238-.092-.413-.275-.505-.984-.505-.457 0-.983.092-1.143.184zm18.526 0c-.206.16-.275 1.355-.229 5.237l.068 5.032h2.288l.068-4.71c.023-2.596 0-4.939-.068-5.238-.092-.413-.275-.505-.984-.505-.457 0-.983.092-1.143.184zm-35.154 16.816c-.069.115-.046.39.068.62.366.735.892 1.953 1.99 4.663.572 1.448 1.212 2.94 1.373 3.331.16.368.526 1.31.823 2.068.297.758.617 1.47.709 1.585.091.138.183.414.183.643 0 1.126 2.058 1.815 2.767.92.183-.207.572-1.011.87-1.77.297-.758.663-1.7.823-2.067.16-.39.8-1.884 1.372-3.331a243.307 243.307 0 0 1 1.921-4.595c.87-2.044.801-2.297-.594-2.297-.824 0-1.67.666-1.67 1.332 0 .23-.091.506-.183.62-.091.139-.412.85-.709 1.609-.297.758-.663 1.7-.846 2.113-.183.39-.32.827-.32.942 0 .138-.16.529-.343.896-.183.345-.504 1.126-.709 1.723-.206.62-.504 1.103-.664 1.103-.251 0-.663-.827-1.418-2.872-.183-.505-.48-1.217-.663-1.562-.183-.368-.32-.758-.32-.896 0-.115-.16-.597-.366-1.057-.206-.482-.503-1.194-.686-1.608-.183-.413-.321-.896-.321-1.08 0-.689-.869-1.263-1.921-1.263-.572 0-1.075.092-1.166.23zm38.927.597c-.091.092-.16.712-.16 1.378 0 1.149-.023 1.218-.617 1.287-.481.046-.663.207-.709.62-.137.988.137 1.631.732 1.631h.571l.069 3.584.069 3.584.846.78c.778.713.983.782 2.241.782 1.533 0 2.288-.483 2.288-1.447 0-.85-.321-1.172-.87-.873-.686.367-1.029.321-1.601-.207-.457-.437-.503-.712-.503-2.987 0-1.355.069-2.642.137-2.848.115-.276.458-.368 1.373-.368 1.098 0 1.235-.046 1.372-.551a3.44 3.44 0 0 0 .046-1.08c-.069-.505-.206-.574-1.441-.666l-1.372-.115-.115-1.264-.114-1.263-1.029-.069c-.572-.046-1.121 0-1.213.092zm-22.62 3.308c-.594.368-1.372 1.126-1.715 1.631-.595.896-.64 1.149-.64 3.193 0 2.09.045 2.298.686 3.216 1.075 1.563 2.195 2.16 4.254 2.252 1.372.069 1.944 0 2.744-.368 1.396-.643 1.967-1.286 1.579-1.769-.641-.758-1.121-.85-1.922-.367-.549.344-1.143.482-2.15.482-1.28 0-1.418-.046-2.104-.827-1.258-1.447-1.029-1.585 2.745-1.63 4.162-.07 4.345-.116 4.345-.966 0-.344-.091-.942-.205-1.31a16.701 16.701 0 0 1-.343-1.24c-.161-.758-1.419-2.136-2.356-2.619-.458-.23-1.304-.367-2.287-.367-1.327 0-1.716.115-2.631.69zm4.62 2.228c.389.483.664 1.08.641 1.333-.069.413-.275.46-2.63.528-2.493.07-2.585.046-2.585-.413 0-1.356 1.098-2.275 2.676-2.298 1.098 0 1.235.07 1.898.85zm5.581-2.618c-.046.16-.069 2.618-.046 5.444l.069 5.169.549.069a3.41 3.41 0 0 0 1.075-.046c.549-.138.549-.16.549-3.492 0-3.538.114-3.997 1.12-4.847.778-.666 1.807-.666 2.654.023l.686.551.114 3.883.114 3.859h2.516l-.023-4.02c0-4.595-.205-5.33-1.623-6.318-1.167-.78-2.814-.78-4.346 0-.984.506-1.098.506-1.189.161-.046-.207-.183-.46-.343-.551-.412-.299-1.739-.207-1.876.114zm19.876-.161c-.343.16-.412 7.006-.092 8.408.366 1.562 1.647 2.48 3.477 2.48 1.075 0 1.441-.114 2.241-.688.755-.575.961-.644 1.052-.345.069.184.16.505.229.69.068.229.389.344.892.344 1.578 0 1.509.275 1.509-5.537v-5.26l-.549-.138a4.07 4.07 0 0 0-1.189-.046l-.663.069-.069 3.607-.068 3.63-.801.803c-1.258 1.264-2.562 1.034-3.591-.62-.297-.482-.389-1.332-.434-4.02l-.069-3.4-.8-.046c-.435-.023-.938 0-1.075.069zm12.35 0c-.228.092-.297 1.401-.297 5.398v5.261l.549.138c.297.069.8.092 1.075.046.526-.07.549-.161.686-2.826.183-3.86.709-4.87 2.928-5.513.8-.23.823-.276.823-1.379 0-1.125-.023-1.148-.732-1.217-.572-.046-.915.115-1.624.735-.503.46-1.006.827-1.143.827-.138 0-.275-.345-.321-.758-.068-.666-.137-.735-.869-.781-.434-.023-.937 0-1.075.069zm9.812.321c-1.852 1.034-2.859 2.826-2.859 5.054 0 3.354 2.15 5.514 5.489 5.514 1.579 0 3.111-.552 3.889-1.424.343-.391.343-.46-.16-.988-.641-.69-.915-.713-1.67-.115-.435.344-.915.46-2.036.46-1.349 0-1.509-.047-2.195-.759-.732-.758-.984-1.769-.435-1.769.137-.023 1.83-.046 3.705-.069l3.431-.046.069-1.31c.091-1.814-.709-3.376-2.196-4.318-.938-.597-1.281-.69-2.676-.666-1.121 0-1.83.138-2.356.436zm4.026 2.114c.549.62 1.029 1.746.823 2.044-.069.115-1.235.207-2.63.207h-2.493v-.62c0-.39.274-.896.732-1.379.64-.666.869-.758 1.898-.758.938 0 1.281.115 1.67.506zm6.998-2.206c-1.326.644-1.761 1.31-1.784 2.757 0 1.24.023 1.333.892 2.09.481.414 1.167.828 1.487.897.572.138 1.876.643 2.493.987.595.3.846.896.572 1.333-.412.666-2.699.689-3.934.046l-1.006-.483-.549.552c-.641.62-.572 1.148.206 1.516 1.989.942 2.31 1.01 3.933.919 1.464-.07 1.784-.161 2.562-.781.823-.666.869-.804.938-2.16.068-1.355.023-1.493-.641-2.182-.457-.483-1.28-.942-2.241-1.264-2.402-.827-3.065-1.47-2.287-2.25.411-.414 2.561-.346 3.385.114.686.413.709.413 1.143-.16.709-.897.572-1.241-.686-1.793-1.372-.597-3.431-.666-4.483-.138z" fill="#153053" fill-opacity=".6"/></g><defs><clipPath id="clip0"><path fill="#fff" d="M.25 0h190.291v100H.25z"/></clipPath></defs></svg>