<svg width="131" height="106" fill="none" xmlns="http://www.w3.org/2000/svg"><g clip-path="url(#clip0)" fill="#153053" fill-opacity=".6"><path d="M81.774 45.27c-3.958 0-7.606 2.775-7.606 6.728 0 4.231 3.192 7.214 7.606 7.214 4.413 0 7.605-2.983 7.605-7.214 0-3.953-3.648-6.727-7.605-6.727zm0 10.647c-2.134 0-3.885-1.647-3.885-3.901 0-1.804 1.75-3.451 3.885-3.451 2.134 0 3.885 1.647 3.885 3.45 0 2.255-1.751 3.902-3.885 3.902z"/><path d="M109.198 55.452L65.25 90.418 21.3 55.452c-1.556-1.271-3.95-1.539-5.684-1.539H.256l64.86 51.88 65.131-51.88h-15.364c-1.734 0-4.128.268-5.685 1.54zm-44.082 49.522L2.08 54.553h13.536c1.63 0 3.869.242 5.282 1.397L65.25 91.235l44.348-35.283c1.416-1.157 3.656-1.399 5.285-1.399h13.534l-63.3 50.421zM21.301 50.341L65.25 15.376l43.949 34.965c1.556 1.271 3.95 1.539 5.684 1.539h15.364L65.115 0 .255 51.88h15.361c1.734 0 4.128-.268 5.685-1.539zM65.116.819l63.301 50.421h-13.534c-1.629 0-3.869-.242-5.282-1.397L65.25 14.559 20.9 49.84c-1.416 1.157-3.655 1.4-5.285 1.4H2.08L65.116.818z"/><path d="M36.172 48.686c1.167 0 2.5.186 3.082.85V46c-1.185-.347-2.042-.607-3.155-.607a7.88 7.88 0 0 0-5.161 1.924c-1.514 1.301-2.207 3-2.207 4.942 0 1.942.693 3.642 2.206 4.942a7.878 7.878 0 0 0 5.162 1.925c1.113 0 1.97-.26 3.155-.607V54.98c-.583.665-1.915.85-3.082.85-2.225 0-3.72-1.49-3.72-3.554s1.495-3.59 3.72-3.59zm4.398-2.982v13.074h7.054V55.9h-3.48V45.704H40.57zm14.38-.434c-3.958 0-7.605 2.775-7.605 6.728 0 4.231 3.191 7.214 7.605 7.214 4.414 0 7.605-2.983 7.605-7.214 0-3.953-3.647-6.727-7.605-6.727zm0 10.647c-2.134 0-3.885-1.647-3.885-3.901 0-1.804 1.751-3.451 3.885-3.451s3.885 1.647 3.885 3.45c0 2.255-1.751 3.902-3.885 3.902zm39.773-1.405l2.881 4.266h4.305L96.82 51.79l4.396-6.086H96.82l-2.097 3.381-2.098-3.381H88.23l4.395 6.086-5.38 6.988h4.322l3.156-4.266zm-23.574-1.271c1.51-.544 2.32-1.936 2.32-3.514 0-2.792-2.062-4.023-4.779-4.023h-5.344v13.074h3.575V53.75h.565l3.45 5.03h3.98l-3.766-5.54zm-3.882-1.676h-.346v-3.26h.346c1.167 0 2.48.208 2.48 1.63s-1.313 1.63-2.48 1.63z"/></g><defs><clipPath id="clip0"><path fill="#fff" d="M.25 0h130v105.793H.25z"/></clipPath></defs></svg>