<svg width="31" height="30" fill="none" xmlns="http://www.w3.org/2000/svg"><g clip-path="url(#clip0)" fill="#fff"><path d="M30.242 30v-.001h.008V18.996c0-5.382-1.159-9.528-7.451-9.528-3.025 0-5.055 1.66-5.884 3.233h-.087V9.97H10.86v20.029h6.213V20.08c0-2.611.495-5.136 3.728-5.136 3.187 0 3.234 2.98 3.234 5.304V30h6.206zM.745 9.971h6.22V30H.745V9.971zM3.853 0A3.604 3.604 0 0 0 .25 3.603c0 1.988 1.614 3.636 3.603 3.636 1.988 0 3.602-1.648 3.602-3.636A3.605 3.605 0 0 0 3.852 0z"/></g><defs><clipPath id="clip0"><path fill="#fff" d="M.25 0h30v30h-30z"/></clipPath></defs></svg>