<svg width="71" height="70" fill="none" xmlns="http://www.w3.org/2000/svg"><g clip-path="url(#clip0)"><path d="M61.23 56.518a6.554 6.554 0 0 0 2.457-5.112 6.569 6.569 0 0 0-6.562-6.562 6.569 6.569 0 0 0-6.563 6.562c0 2.065.962 3.908 2.457 5.112a12.073 12.073 0 0 0-5.738 4.4v-.762c0-5.19-3.31-9.61-7.925-11.294a6.57 6.57 0 0 0 2.161-3.164c.445.149.911.24 1.39.24a4.38 4.38 0 0 0 4.374-4.376V39l3.384 3.384c.69.691 1.51 1.14 2.37 1.294.275.049.548.074.82.074a4.325 4.325 0 0 0 3.083-1.282 4.354 4.354 0 0 0 1.28-3.094c0-1.17-.456-2.267-1.217-3.023l-8.267-9.86a18.59 18.59 0 0 0-4.194-3.695l-10.916-7.019a12.074 12.074 0 0 0-5.177-1.836l-5.034-.559 1.352-1.352-9.203-9.203L.891 17.5l9.203 9.203.794-.794 1.204 2.407a20.332 20.332 0 0 0 3.816 5.294 20.51 20.51 0 0 0 2.422 2.07l9.813 7.137c.184.135.38.25.577.355a6.763 6.763 0 0 0-.033.578c0 2.065.962 3.908 2.457 5.112-4.615 1.683-7.925 6.103-7.925 11.294v.76a12.079 12.079 0 0 0-5.738-4.399 6.55 6.55 0 0 0 2.456-5.11 6.569 6.569 0 0 0-6.562-6.563 6.569 6.569 0 0 0-6.563 6.562c0 2.065.962 3.908 2.457 5.112-4.615 1.684-7.925 6.104-7.925 11.294v1.094h24.062v-1.094c0-2.421-.725-4.673-1.96-6.562h23.609a11.946 11.946 0 0 0-1.961 6.563v1.093h24.062v-1.094c0-5.19-3.31-9.61-7.925-11.294zM9 51.406a4.38 4.38 0 0 1 4.375-4.375 4.38 4.38 0 0 1 4.375 4.375 4.38 4.38 0 0 1-4.375 4.375A4.38 4.38 0 0 1 9 51.406zm7.421 7.055l-3.046 3.35-3.046-3.35a9.786 9.786 0 0 1 3.046-.492c1.064 0 2.085.178 3.046.492zm-12.83 8.258a9.858 9.858 0 0 1 4.65-7.301l5.134 5.646 5.132-5.646a9.855 9.855 0 0 1 4.65 7.3H3.591zm32.444-29.48a4.854 4.854 0 0 0-1.306-1.992l-8.007-7.206 8.45 2.304a4.559 4.559 0 0 1 3.36 4.4v3.33a6.506 6.506 0 0 0-2.497-.836zm19.355.59c.414.413.641.962.641 1.546 0 .584-.227 1.133-.64 1.547-.516.516-1.23.732-1.967.602-.529-.095-.95-.426-1.211-.688l-4.932-4.93v-7.743l8.11 9.665zM3.984 17.5L15.562 5.922l6.11 6.11L10.094 23.61l-6.11-6.11zm15.633 16.412a18.146 18.146 0 0 1-5.568-6.573l-1.53-3.06 8.915-8.915 6.772.753a9.9 9.9 0 0 1 4.236 1.503l10.918 7.02c.61.392 1.186.829 1.736 1.296v15.628a2.19 2.19 0 0 1-2.188 2.187c-.395 0-.775-.108-1.109-.305a6.526 6.526 0 0 0-1.078-3.315v-5.386c0-2.26-1.124-4.36-3.005-5.614a6.727 6.727 0 0 0-1.968-.896l-11.145-3.04a1.097 1.097 0 0 0-1.383 1.056v1.094c0 .31.13.606.362.812l9.685 8.717c.565.51.89 1.238.89 2a2.694 2.694 0 0 1-2.69 2.69h-.454a2.677 2.677 0 0 1-1.582-.515l-9.813-7.136zm11.258 9.838l.001-.01c.046 0 .09.01.136.01h.455c2.47 0 4.496-1.854 4.813-4.24 1.914.467 3.345 2.184 3.345 4.24a4.38 4.38 0 0 1-4.375 4.375 4.38 4.38 0 0 1-4.375-4.375zm7.421 7.055l-3.046 3.35-3.046-3.35a9.787 9.787 0 0 1 3.046-.492c1.064 0 2.085.178 3.046.492zm-12.83 8.258a9.859 9.859 0 0 1 4.65-7.301l5.134 5.646 5.132-5.646a9.856 9.856 0 0 1 4.65 7.3H25.466zm27.284-7.657a4.38 4.38 0 0 1 4.375-4.375 4.38 4.38 0 0 1 4.375 4.375 4.38 4.38 0 0 1-4.375 4.375 4.38 4.38 0 0 1-4.375-4.375zm7.421 7.055l-3.046 3.35-3.046-3.35a9.786 9.786 0 0 1 3.046-.492c1.064 0 2.085.178 3.046.492zm-12.83 8.258a9.858 9.858 0 0 1 4.65-7.301l5.134 5.646 5.132-5.646a9.855 9.855 0 0 1 4.65 7.3H47.341z" fill="#153053"/><path d="M68.836 2.96l-1.547-1.546-7.977 7.977-1.414-1.414-1.546 1.546 2.96 2.961 9.524-9.523zm-9.524 18.915a3.285 3.285 0 0 0 3.282-3.281 3.285 3.285 0 0 0-3.282-3.282 3.285 3.285 0 0 0-3.28 3.282 3.285 3.285 0 0 0 3.28 3.281zm0-4.375c.603 0 1.094.491 1.094 1.094 0 .602-.491 1.093-1.094 1.093a1.096 1.096 0 0 1-1.093-1.093c0-.603.49-1.094 1.093-1.094zM40.719 8.75h13.125v2.188H40.719V8.75zm0 8.75h8.75v2.188h-8.75V17.5zm10.937 0h2.188v2.188h-2.188V17.5zm-10.937-4.375h13.125v2.188H40.719v-2.188z" fill="#FB6018"/></g><defs><clipPath id="clip0"><path fill="#fff" d="M.25 0h70v70h-70z"/></clipPath></defs></svg>