<svg width="25" height="24" viewBox="0 0 25 24" fill="none" xmlns="http://www.w3.org/2000/svg">
<path d="M21.3779 15.5147C20.0709 14.2077 18.5152 13.2402 16.8178 12.6545C18.6357 11.4024 19.8301 9.30694 19.8301 6.9375C19.8301 3.11217 16.7179 0 12.8926 0C9.06725 0 5.95508 3.11217 5.95508 6.9375C5.95508 9.30694 7.14941 11.4024 8.96736 12.6545C7.27002 13.2402 5.71433 14.2077 4.40731 15.5147C2.14081 17.7812 0.892578 20.7947 0.892578 24H2.76758C2.76758 18.417 7.30963 13.875 12.8926 13.875C18.4755 13.875 23.0176 18.417 23.0176 24H24.8926C24.8926 20.7947 23.6443 17.7812 21.3779 15.5147ZM12.8926 12C10.1011 12 7.83008 9.729 7.83008 6.9375C7.83008 4.146 10.1011 1.875 12.8926 1.875C15.684 1.875 17.9551 4.146 17.9551 6.9375C17.9551 9.729 15.684 12 12.8926 12Z" fill="#130F40"/>
</svg>
