<svg width="25" height="24" viewBox="0 0 25 24" fill="none" xmlns="http://www.w3.org/2000/svg">
<path d="M12.8926 5.15912C10.4358 5.15912 8.43701 7.15791 8.43701 9.61472C8.43701 12.0715 10.4358 14.0703 12.8926 14.0703C15.3494 14.0703 17.3482 12.0715 17.3482 9.61472C17.3482 7.15791 15.3495 5.15912 12.8926 5.15912ZM12.8926 12.1943C11.4702 12.1943 10.313 11.0371 10.313 9.61472C10.313 8.19235 11.4702 7.03515 12.8926 7.03515C14.315 7.03515 15.4722 8.19235 15.4722 9.61472C15.4722 11.0371 14.315 12.1943 12.8926 12.1943Z" fill="#153053"/>
<path d="M12.8926 0C7.59099 0 3.27783 4.3132 3.27783 9.61477V9.88055C3.27783 12.5618 4.81505 15.6863 7.84693 19.1671C10.0448 21.6905 12.212 23.45 12.3031 23.5237L12.8926 24L13.4821 23.5237C13.5733 23.45 15.7404 21.6905 17.9383 19.1671C20.9701 15.6863 22.5074 12.5618 22.5074 9.88059V9.61481C22.5074 4.3132 18.1942 0 12.8926 0ZM20.6313 9.88059C20.6313 14.4118 14.793 19.8968 12.8926 21.5619C10.9917 19.8963 5.15386 14.4114 5.15386 9.88059V9.61481C5.15386 5.34769 8.62547 1.87608 12.8926 1.87608C17.1597 1.87608 20.6313 5.34769 20.6313 9.61481V9.88059Z" fill="#153053"/>
</svg>
