<svg width="25" height="24" viewBox="0 0 25 24" fill="none" xmlns="http://www.w3.org/2000/svg">
<path d="M23.7243 3.13326L20.5802 0L14.0507 6.51866L16.582 9.13287C16.1578 9.88597 15.2374 11.3285 13.6687 12.8972C12.0999 14.4661 10.6467 15.397 9.88647 15.828L7.32353 13.2977L0.895996 19.687L4.02293 22.8347C5.21819 24.03 7.03689 24.3398 8.54851 23.6056C10.8552 22.4853 14.3365 20.4181 17.8222 16.9324C21.3077 13.4469 23.3749 9.96556 24.4953 7.65884C24.7607 7.11228 24.8897 6.52564 24.8897 5.9428C24.8897 4.91362 24.4874 3.89634 23.7243 3.13326ZM22.81 6.84022C21.7524 9.0177 19.7987 12.3063 16.4973 15.6077C13.1958 18.9092 9.90732 20.8628 7.72994 21.9203C6.93611 22.3058 5.97869 22.1409 5.34986 21.5121L3.54508 19.6953L7.32817 15.9349L9.51156 18.0904L10.0957 17.8303C10.1906 17.788 12.4499 16.7657 14.9936 14.222C17.539 11.6766 18.5401 9.43643 18.5814 9.34226L18.8347 8.76594L16.6803 6.54092L20.5815 2.64609L22.4005 4.45869C23.0307 5.08987 23.1954 6.04682 22.81 6.84022Z" fill="#130F40"/>
</svg>
