<svg width="25" height="24" viewBox="0 0 25 24" fill="none" xmlns="http://www.w3.org/2000/svg">
<path d="M11.7649 11.3348H5.62939V21.1853H11.7649V11.3348ZM10.3586 19.7791H7.03564V12.741H10.3586V19.7791Z" fill="#153053"/>
<path d="M20.7163 11.3348H13.6807V15.5557H20.7163V11.3348ZM19.3101 14.1495H15.0869V12.741H19.3101V14.1495Z" fill="#153053"/>
<path d="M13.6797 16.9642H15.087V18.3704H13.6797V16.9642Z" fill="#153053"/>
<path d="M16.4946 16.9642H17.902V18.3704H16.4946V16.9642Z" fill="#153053"/>
<path d="M19.3096 16.9642H20.7169V18.3704H19.3096V16.9642Z" fill="#153053"/>
<path d="M13.6797 19.7791H15.087V21.1853H13.6797V19.7791Z" fill="#153053"/>
<path d="M16.4946 19.7791H17.902V21.1853H16.4946V19.7791Z" fill="#153053"/>
<path d="M19.3096 19.7791H20.7169V21.1853H19.3096V19.7791Z" fill="#153053"/>
<path d="M20.7161 8.52008V0H5.1604V8.52008H2.3457V24H23.531V8.52008H20.7161ZM6.56665 1.40625H19.3099V8.52008H6.56665V1.40625ZM22.1248 22.5938H3.75195V9.92633H22.1248V22.5938Z" fill="#153053"/>
<path d="M7.97461 2.8526H17.9019V4.25885H7.97461V2.8526Z" fill="#153053"/>
<path d="M7.97461 5.6673H17.9019V7.07355H7.97461V5.6673Z" fill="#153053"/>
</svg>
