<svg width="25" height="24" viewBox="0 0 25 24" fill="none" xmlns="http://www.w3.org/2000/svg">
<g clip-path="url(#clip0)">
<path d="M22.0801 3.1875H3.70508C2.15427 3.1875 0.892578 4.44919 0.892578 6V18C0.892578 19.5508 2.15427 20.8125 3.70508 20.8125H22.0801C23.6309 20.8125 24.8926 19.5508 24.8926 18V6C24.8926 4.44919 23.6309 3.1875 22.0801 3.1875ZM23.0176 18C23.0176 18.5169 22.597 18.9375 22.0801 18.9375H3.70508C3.18814 18.9375 2.76758 18.5169 2.76758 18V6C2.76758 5.48306 3.18814 5.0625 3.70508 5.0625H22.0801C22.597 5.0625 23.0176 5.48306 23.0176 6V18Z" fill="#153053"/>
<path d="M22.8583 4.35638L12.8925 11.769L2.92671 4.35638L1.80762 5.86084L12.8925 14.1059L23.9774 5.86084L22.8583 4.35638Z" fill="#153053"/>
</g>
<defs>
<clipPath id="clip0">
<rect x="0.892578" width="24" height="24" fill="white"/>
</clipPath>
</defs>
</svg>
